<svg width="24" height="24" viewBox="0 0 24 24" fill="none" xmlns="http://www.w3.org/2000/svg">
<g id="linkedin">
<path id="Vector" d="M3.46687 1.21875C1.817 1.21875 0.738281 2.30214 0.738281 3.7261C0.738281 5.11862 1.78487 6.23291 3.40356 6.23291H3.43488C5.11702 6.23291 6.16388 5.11862 6.16388 3.7261C6.13243 2.30214 5.11702 1.21875 3.46687 1.21875Z" fill="black"/>
<path id="Vector_2" d="M1.02344 8.21387H5.84671V22.7249H1.02344V8.21387Z" fill="black"/>
<path id="Vector_3" d="M17.6855 7.87305C15.0836 7.87305 13.3388 10.3181 13.3388 10.3181V8.21362H8.51538V22.7246H13.3385V14.6211C13.3385 14.1873 13.37 13.7542 13.4974 13.4439C13.8461 12.5777 14.6396 11.6802 15.9721 11.6802C17.7174 11.6802 18.4154 13.0109 18.4154 14.9617V22.7246H23.2383V14.4043C23.2383 9.94713 20.8587 7.87305 17.6855 7.87305Z" fill="black"/>
</g>
</svg>
